<mxfile host="app.diagrams.net" modified="2024-07-18T03:57:58.634Z" agent="Mozilla/5.0 (Windows NT 10.0; Win64; x64) AppleWebKit/537.36 (KHTML, like Gecko) Chrome/126.0.0.0 Safari/537.36" version="24.7.1" etag="Nj0i7oT4-P2li8bYdsMm" type="github">
  <diagram name="Page-1" id="Qfkzd9v8kmUsyJhpiQ51">
    <mxGraphModel>
      <root>
        <mxCell id="0" />
        <mxCell id="1" parent="0" />
      </root>
    </mxGraphModel>
  </diagram>
</mxfile>
